<?xml version="1.0" encoding="UTF-8" standalone="no"?>
<svg
   class="hero_custom__headline__text--V"
   viewBox="0 0 32 32"
   version="1.1"
   id="svg23675"
   width="32"
   height="32"
   xmlns="http://www.w3.org/2000/svg"
   xmlns:svg="http://www.w3.org/2000/svg">
  <defs
     id="defs23679" />
  <path
     style="fill:#000000;fill-opacity:1;stroke-width:0.398961"
     d="M 8.5820411,26.859576 C 7.9150862,26.632058 6.5249163,25.770006 5.492805,24.943906 -3.7699367,17.530076 1.949355,1.7257104 13.493838,2.8342894 c 6.020409,0.5781205 9.961159,4.9245773 10.777381,11.8869446 0.196282,1.674275 0.639211,3.622329 0.984284,4.328999 0.805363,1.649288 2.706506,3.161856 4.79586,3.81563 2.456852,0.447069 2.110673,4.483057 0.553669,4.491209 -5.044845,0 -9.925745,-5.416363 -10.430818,-11.575151 -0.441062,-5.378236 -3.29441,-8.5423282 -7.703382,-8.5423282 -2.296714,0 -3.9761885,0.792395 -5.451874,2.5722668 -2.3751617,2.8647744 -2.6728742,6.6825824 -0.7598239,9.7439564 1.3915883,2.226904 3.6448005,3.368829 7.1216769,3.609261 l 2.810738,0.194371 v 1.998804 1.99882 l -3.198419,-0.0419 C 11.234,27.292084 9.2490099,27.087113 8.5820411,26.859599 Z"
     id="path16842-3" />
</svg>
