<?xml version="1.0" encoding="UTF-8" standalone="no"?>
<svg
   class="hero_custom__headline__text--V"
   viewBox="0 0 107 118"
   version="1.1"
   id="svg23675"
   xmlns="http://www.w3.org/2000/svg"
   xmlns:svg="http://www.w3.org/2000/svg">
  <defs
     id="defs23679" />
  <path
     style="fill:#000000;fill-opacity:1;stroke-width:1.3932"
     d="M 26.649679,96.387621 C 24.346386,95.584229 19.545509,92.540216 15.981168,89.623152 -16.007213,63.443999 3.7440536,7.6368286 43.612308,11.551359 c 20.791159,2.041415 34.400329,17.389293 37.219109,41.974271 0.67785,5.912073 2.207477,12.790893 3.39917,15.286231 2.781276,5.823843 9.346775,11.164906 16.562243,13.473465 8.48461,1.578655 7.2891,15.83023 1.91207,15.859014 -17.422104,0 -34.278029,-19.125849 -36.022269,-40.873295 C 65.159446,38.279827 55.305562,27.107031 40.079413,27.107031 c -7.931582,0 -13.731557,2.798043 -18.827758,9.08299 -8.202493,10.115872 -9.230627,23.597024 -2.624011,34.40712 4.805776,7.863472 12.587122,11.895749 24.594332,12.744748 l 9.706734,0.686346 v 7.058027 7.058078 L 41.883141,97.996392 C 35.808076,97.914862 28.953019,97.191082 26.649679,96.3877 Z"
     id="path16842-3" />
</svg>
