<?xml version="1.0" encoding="UTF-8" standalone="no"?>
<svg
   viewbox="0 0 153 40" fill="none"   xmlns="http://www.w3.org/2000/svg">
  <title>Arrk</title>
  <path class="cmp-logo__greater-than"
     d="M 13.585531,39.71729 C 12.531911,39.362862 10.335791,38.019931 8.7053114,36.733004 -5.9275086,25.18351 3.1075414,0.56298102 21.344941,2.289961 c 9.51074,0.900614 15.73614,7.671659 17.02557,18.517848 0.31007,2.608237 1.00979,5.642976 1.55492,6.743848 1.27227,2.569313 4.2756,4.925639 7.57625,5.944107 3.88122,0.696459 3.33434,6.983843 0.87467,6.996547 -7.9696,0 -15.6802,-8.437782 -16.47809,-18.032132 -0.69676,-8.378383 -5.20434,-13.307501 -12.16941,-13.307501 -3.62824,0 -6.28139,1.234417 -8.6126,4.007156 -3.7521596,4.462833 -4.2224796,10.410332 -1.2003296,15.179437 2.1983596,3.469139 5.7578696,5.248064 11.2504696,5.622621 l 4.44026,0.302793 v 3.113804 3.113822 l -5.0527,-0.06527 c -2.77899,-0.03598 -5.91478,-0.355283 -6.96842,-0.709712 z" />
  <path class="cmp-logo__text"
     d="m 138.62669,39.864297 c -2.5265,-0.416696 -4.9593,-2.069031 -6.15289,-4.178986 -0.26791,-0.473574 -0.5981,-1.691408 -0.73378,-2.706288 -0.46229,-3.457878 -2.15765,-4.926083 -6.11849,-5.298685 -3.79995,-0.357477 -6.19077,-1.658352 -7.85301,-4.272948 -0.60631,-0.953673 -0.67635,-1.452704 -0.76667,-5.461922 l -0.0994,-4.412354 h 1.47465 1.47465 l 0.10513,3.915187 c 0.10049,3.742339 0.14099,3.966362 0.91745,5.074325 1.09632,1.564416 2.40778,2.194488 5.16548,2.481684 2.68839,0.279979 3.93473,0.684191 5.56514,1.804893 1.73773,1.19447 2.80461,2.977507 3.09895,5.179178 0.13354,0.998866 0.528,2.285064 0.87657,2.858217 0.74317,1.221969 2.39979,2.250978 3.96583,2.463355 l 1.11127,0.150704 v 1.335439 c 0,1.45243 0.0713,1.414915 -2.03088,1.068201 z m 4.52013,-0.577948 c -0.78276,-0.656619 -1.00755,-1.050383 -1.00755,-1.764939 0,-1.224885 1.56481,-2.61013 2.94847,-2.61013 1.26508,0 2.4922,0.571529 2.92061,1.360262 1.05132,1.935553 -0.40478,3.859992 -2.92061,3.859992 -0.66636,0 -1.2216,-0.241781 -1.94092,-0.845185 z m 3.42757,0.228051 c 2.40911,-1.045043 1.30531,-4.354534 -1.45234,-4.354534 -1.01265,0 -2.42213,1.253864 -2.45337,2.182514 -0.0668,1.986385 1.86151,3.058761 3.90571,2.17202 z m -2.31333,-1.806555 -0.0474,-1.553648 h 1.18536 c 1.03933,0 1.18535,0.07043 1.18535,0.571742 0,0.31446 -0.15318,0.700233 -0.34039,0.857277 -0.2563,0.214993 -0.218,0.442225 0.155,0.919761 0.27247,0.348825 0.36651,0.634219 0.20898,0.634219 -0.15753,0 -0.52274,-0.335587 -0.81158,-0.745744 -0.68413,-0.971519 -1.21902,-0.947228 -1.36835,0.06212 -0.066,0.446054 -0.14076,0.112052 -0.16695,-0.745751 z m 1.87878,-0.807896 c 0,-0.221979 -0.32978,-0.404704 -0.81493,-0.451534 -0.6636,-0.06406 -0.81493,0.01978 -0.81493,0.451534 0,0.431737 0.15133,0.515583 0.81493,0.451534 0.48515,-0.04681 0.81493,-0.22955 0.81493,-0.451534 z m -82.420142,2.433197 c -0.509814,-0.137753 -1.572416,-0.659702 -2.361339,-1.159884 -7.080222,-4.488872 -2.70853,-14.057983 6.115802,-13.386768 4.601857,0.350037 7.614072,2.981697 8.237975,7.19722 0.150033,1.013727 0.488596,2.193221 0.752361,2.62109 0.615601,0.998599 2.068791,1.914418 3.665846,2.31026 1.257039,0.31157 1.259444,0.314459 1.259444,1.515733 0,1.154691 -0.03397,1.203572 -0.836232,1.203572 -3.856162,0 -7.587003,-3.279461 -7.973074,-7.008439 -0.337135,-3.256375 -2.518166,-5.172145 -5.888281,-5.172145 -1.755557,0 -3.039307,0.479773 -4.167285,1.557437 -1.815519,1.734542 -2.04308,4.04612 -0.580793,5.899699 1.063698,1.348329 2.785995,2.039733 5.443644,2.18531 l 2.148463,0.117685 v 1.210223 1.21023 l -2.444797,-0.02537 c -1.34464,-0.01398 -2.86192,-0.138086 -3.371734,-0.27584 z m 19.209484,-4.359714 c 0.124925,-5.142595 0.293477,-5.744454 2.137278,-7.631961 2.032785,-2.080974 6.048744,-3.126938 9.231597,-2.404393 1.729894,0.392704 3.863505,1.659918 4.878592,2.89754 0.720173,0.878051 1.771501,3.338509 1.771501,4.145893 0,0.107996 -0.73343,0.196356 -1.629859,0.196356 -1.373169,0 -1.62987,-0.07062 -1.62987,-0.448358 0,-0.246602 -0.34627,-1.03126 -0.769491,-1.743691 -2.05478,-3.458906 -7.938178,-3.498671 -10.097952,-0.06825 -0.645416,1.025127 -0.689772,1.372813 -0.689772,5.406688 v 4.311114 h -1.65762 -1.657621 z m 19.256858,0.124289 c 0.11641,-4.227707 0.1768,-4.631219 0.88664,-5.925354 0.87976,-1.603927 2.39332,-2.96738 4.18054,-3.765932 1.8088,-0.808186 6.02827,-0.808271 7.83688,-1.57e-4 2.75058,1.229003 4.55271,3.28822 5.00072,5.714106 l 0.19512,1.056483 h -1.62897 -1.62897 l -0.17028,-0.880236 c -0.42718,-2.208183 -2.8864,-3.913873 -5.64291,-3.913873 -1.72022,0 -2.91605,0.430938 -4.1019,1.478185 -1.49735,1.322335 -1.71967,2.183833 -1.71967,6.663815 v 4.109611 h -1.66607 -1.66606 z" />
</svg>
