<?xml version="1.0" encoding="UTF-8" standalone="no"?>
<!-- Created with Inkscape (http://www.inkscape.org/) -->
<svg
   width="32"
   height="32"
   viewBox="0 0 8.4666662 8.4666662"
   version="1.1"
   id="svg5"
   xml:space="preserve"
   xmlns="http://www.w3.org/2000/svg"
   xmlns:svg="http://www.w3.org/2000/svg"><defs
     id="defs2" /><g
     id="layer1"><g
       id="g46662"
       transform="matrix(0.07042875,0,0,0.06898607,-0.47570663,1.9383135)"
       style="fill:none">
     <path
   class="cmp-7logo__greater-than"
   id="path46556"
   style="fill:#ff00ff;stroke-width:0.851416"
   d="m 117.88015,54.995676 c -4.86431,-1.271125 -9.44069,-7.741146 -9.44069,-13.34714 0,-4.185594 -2.75542,-7.07548 -7.37471,-7.734599 -4.94796,-0.70603 -8.55307,-2.983719 -10.69018,-6.754025 -1.29877,-2.291306 -1.63192,-4.45284 -1.63435,-10.604442 l -0.003,-7.72652 h 2.37855 2.37855 l 0.28949,7.582227 c 0.26841,7.030229 0.45718,7.73739 2.5928,9.713346 1.4003,1.295593 3.33641,2.131109 4.93838,2.131109 6.1949,0 11.48674,5.629132 12.46197,13.256263 0.59603,4.661472 3.18183,7.936473 6.2663,7.936473 0.84214,0 1.53115,0.446027 1.53115,0.991156 0,0.684796 0.38062,0.651379 1.23139,-0.10812 0.98243,-0.877019 1.48037,-0.877019 2.46279,0 0.67727,0.604598 1.2314,1.598006 1.2314,2.207577 0,0.609563 -0.55413,1.602971 -1.2314,2.207578 -0.98242,0.877018 -1.48036,0.877018 -2.46279,0 -0.85077,-0.7595 -1.23139,-0.792925 -1.23139,-0.10812 0,1.020173 -0.84469,1.101849 -3.69418,0.357237 z M 15.191125,53.076789 C 4.632045,46.150845 7.385641,30.196066 19.567446,27.719694 c 3.233409,-0.657302 9.620722,2.487398 11.886893,5.852337 0.824449,1.224195 1.804821,4.306765 2.178602,6.850162 0.778443,5.296921 2.513774,7.796841 5.980781,8.61593 2.037803,0.481435 2.384596,0.947548 2.172432,2.919904 -0.217891,2.025598 -0.611417,2.32994 -2.873599,2.22229 C 35.754234,54.03005 31.656482,51.064895 30.141379,47.83345 29.533126,46.536151 28.822706,43.687212 28.562668,41.502478 27.687817,34.15229 20.565059,30.86201 16.047552,35.721252 c -4.605867,4.954302 -1.413009,12.636362 5.605678,13.487312 3.614921,0.438279 3.87233,0.637953 3.87233,3.003736 0,2.435104 -0.152571,2.534128 -3.899416,2.530954 -2.369478,-0.0017 -4.894261,-0.65584 -6.435019,-1.666465 z M 42.765083,46.04683 c 0,-9.416681 1.083847,-12.459652 5.765758,-16.187758 6.690699,-5.32766 17.844569,-0.04626 18.992296,8.992923 0.243848,1.920479 -0.06669,2.243568 -2.38772,2.484286 -2.247948,0.233143 -2.668021,-0.01652 -2.668021,-1.585441 0,-3.146117 -3.583133,-6.197026 -7.278077,-6.197026 -2.619155,0 -3.659568,0.526051 -5.373357,2.716846 -1.938961,2.478633 -2.125301,3.407694 -2.125301,10.596372 v 7.879527 h -2.462788 -2.46279 z m 26.402351,-0.966887 0.277865,-9.666607 2.849951,-3.160525 c 3.657226,-4.05577 7.935608,-5.52003 12.15532,-4.160142 4.14555,1.335993 8.32283,6.089594 8.93871,10.171955 0.47199,3.128577 0.40556,3.236471 -1.99294,3.236471 -1.95456,0 -2.58933,-0.463374 -2.9906,-2.183143 -0.79286,-3.397981 -3.68773,-5.76793 -7.006519,-5.736052 -5.674411,0.05452 -7.438809,3.280471 -7.438809,13.60084 v 7.563819 h -2.535421 -2.535423 z" /></g></g></svg>
